<svg width="35" height="40" viewBox="0 0 35 40" fill="none" xmlns="http://www.w3.org/2000/svg">
<path d="M31.2082 6.64012C27.8082 2.48012 22.6882 0.00012207 17.5282 0.00012207C12.2482 0.00012207 6.84818 2.68012 3.44818 7.00012C0.408181 10.8401 -0.671819 15.4801 0.40818 20.0401C2.96818 30.7601 13.4482 40.0001 17.4882 40.0001C21.6082 40.0001 32.3682 30.5601 34.5682 20.0001C35.5282 15.2801 34.3682 10.5201 31.2082 6.64012ZM32.6882 19.6401C30.5682 29.8001 20.2482 38.1201 17.4882 38.1201C14.8482 38.1201 4.72818 29.8001 2.28818 19.6001C1.32818 15.6001 2.28818 11.5601 4.96818 8.16012C8.00818 4.32012 12.8482 1.92012 17.5682 1.92012C22.1682 1.92012 26.7282 4.16012 29.7682 7.88012C32.4882 11.2801 33.5682 15.4401 32.6882 19.6401Z" fill="#001664"/>
<path d="M15.4881 24.1999C15.0081 24.7599 14.3681 25.1199 13.6481 25.1599L13.1681 25.1999C12.9281 25.2399 12.6881 25.2399 12.4481 25.2399C8.48813 25.2399 5.12813 22.2399 4.76813 18.2399L4.72813 17.7599C4.64813 17.0399 4.88813 16.3199 5.32813 15.7599C5.80813 15.1999 6.44813 14.8399 7.16813 14.7999L7.64813 14.7599C11.8881 14.3599 15.6881 17.4799 16.0881 21.7199L16.1281 22.1999C16.1681 22.9599 15.9281 23.6399 15.4881 24.1999Z" fill="#001664"/>
<path d="M30.2079 17.76L30.1679 18.24C29.9679 20.28 29.0079 22.16 27.4079 23.48C26.0079 24.64 24.2879 25.24 22.4879 25.24C22.2479 25.24 22.0079 25.24 21.7279 25.2L21.2479 25.16C19.7679 25.04 18.6879 23.68 18.8079 22.2L18.8479 21.72C19.2479 17.52 23.0479 14.4 27.2879 14.8L27.7679 14.84C29.2479 14.96 30.3279 16.28 30.2079 17.76Z" fill="#001664"/>
</svg>
