<svg width="35" height="40" viewBox="0 0 35 40" fill="none" xmlns="http://www.w3.org/2000/svg">
<path d="M31.2082 6.64C27.8082 2.48 22.6882 0 17.5282 0C12.2482 0 6.84818 2.68 3.44818 7C0.408181 10.84 -0.671819 15.48 0.40818 20.04C2.96818 30.76 13.4482 40 17.4882 40C21.6082 40 32.3682 30.56 34.5682 20C35.5282 15.28 34.3682 10.52 31.2082 6.64ZM32.6882 19.64C30.5682 29.8 20.2482 38.12 17.4882 38.12C14.8482 38.12 4.72818 29.8 2.28818 19.6C1.32818 15.6 2.28818 11.56 4.96818 8.16C8.00818 4.32 12.8482 1.92 17.5682 1.92C22.1682 1.92 26.7282 4.16 29.7682 7.88C32.4882 11.28 33.5682 15.44 32.6882 19.64Z" fill="#00FFBB"/>
<path d="M15.4881 24.1998C15.0081 24.7598 14.3681 25.1198 13.6481 25.1598L13.1681 25.1998C12.9281 25.2398 12.6881 25.2398 12.4481 25.2398C8.48813 25.2398 5.12813 22.2398 4.76813 18.2398L4.72813 17.7598C4.64813 17.0398 4.88813 16.3198 5.32813 15.7598C5.80813 15.1998 6.44813 14.8398 7.16813 14.7998L7.64813 14.7598C11.8881 14.3598 15.6881 17.4798 16.0881 21.7198L16.1281 22.1998C16.1681 22.9598 15.9281 23.6398 15.4881 24.1998Z" fill="#00FFBB"/>
<path d="M30.2079 17.7599L30.1679 18.2399C29.9679 20.2799 29.0079 22.1599 27.4079 23.4799C26.0079 24.6399 24.2879 25.2399 22.4879 25.2399C22.2479 25.2399 22.0079 25.2399 21.7279 25.1999L21.2479 25.1599C19.7679 25.0399 18.6879 23.6799 18.8079 22.1999L18.8479 21.7199C19.2479 17.5199 23.0479 14.3999 27.2879 14.7999L27.7679 14.8399C29.2479 14.9599 30.3279 16.2799 30.2079 17.7599Z" fill="#00FFBB"/>
</svg>
