<svg width="191" height="58" viewBox="0 0 191 58" fill="none" xmlns="http://www.w3.org/2000/svg">
<path d="M46.2026 28.7106C46.2026 32.3891 45.1082 35.985 43.0576 39.0436C41.0071 42.1022 38.0926 44.486 34.6827 45.8937C31.2728 47.3014 27.5206 47.6697 23.9007 46.9521C20.2808 46.2345 16.9557 44.4631 14.3458 41.862C11.736 39.2609 9.9587 35.9469 9.23865 32.3391C8.5186 28.7313 8.88815 24.9917 10.3006 21.5932C11.713 18.1947 14.1049 15.29 17.1737 13.2463C20.2425 11.2026 23.8505 10.1118 27.5413 10.1118C32.4906 10.1118 37.2372 12.0713 40.7369 15.5593C44.2365 19.0472 46.2026 23.7779 46.2026 28.7106Z" fill="white"/>
<path d="M0 28.6646C0 28.6646 9.17159 17.8725 20.3577 6.7832C20.3577 6.7832 9.03905 20.0256 0 28.6646Z" fill="white"/>
<path d="M0 28.5981C0 28.5981 9.17159 39.3902 20.3577 50.4795C20.3577 50.4795 9.03905 37.2371 0 28.5981Z" fill="white"/>
<path d="M34.3337 28.7502V28.704C34.2609 21.3067 28.3099 15.4946 24.5326 10.1382C19.6751 3.25611 25.6525 0 25.6525 0C25.6525 0 16.9647 2.50978 24.6254 14.702C27.4484 19.2065 29.2046 22.7532 29.7148 25.547C30.1426 27.7297 30.1245 29.976 29.6618 32.1517C29.1515 34.9058 27.3623 38.3667 24.6254 42.7192C16.9647 54.9048 25.6525 57.4212 25.6525 57.4212C25.6525 57.4212 19.6884 54.1651 24.5326 47.2764C28.3099 41.9596 34.2609 36.1475 34.3337 28.7502Z" fill="white"/>
<path d="M36.9846 27.0923C39.1106 27.2316 41.1845 27.8096 43.0746 28.7897C43.0746 28.7897 39.2973 28.6114 36.9846 27.0923Z" fill="#001664"/>
<path d="M36.9846 30.4674C39.1106 30.3281 41.1845 29.7501 43.0746 28.77C43.0746 28.77 39.2973 28.9351 36.9846 30.4674Z" fill="#001664"/>
<path d="M34.3979 28.5059V28.4597C34.3184 21.1549 28.5066 15.4022 24.7359 10.0986C24.0252 10.2098 23.3216 10.362 22.6286 10.5544C23.2051 11.9072 23.8922 13.2105 24.6829 14.4511C27.5126 18.9555 29.2687 22.5089 29.779 25.3026C30.2044 27.4856 30.1863 29.7314 29.726 31.9073C29.2091 34.6681 27.4198 38.129 24.6829 42.4749C23.8934 43.7185 23.2064 45.0239 22.6286 46.3782C23.3224 46.5675 24.0258 46.7196 24.7359 46.834C28.5066 41.5502 34.3184 35.7777 34.3979 28.4729V28.5059Z" fill="#001664"/>
<path d="M40.0064 28.7835C27.1238 28.0834 15.1358 28.3476 8.89325 28.5787V28.7108C8.89325 28.8297 8.89325 28.9486 8.89325 29.0675C23.1079 29.7412 40.0064 28.7835 40.0064 28.7835Z" fill="#001664"/>
<path d="M59.1401 20V6H63.0201L70.1401 14.52H68.3401V6H72.9401V20H69.0601L61.9401 11.48H63.7401V20H59.1401Z" fill="white"/>
<path d="M79.5344 11.2H85.7744V14.6H79.5344V11.2ZM79.8544 16.44H86.8544V20H75.2144V6H86.5944V9.56H79.8544V16.44Z" fill="white"/>
<path d="M92.0161 20L87.5361 6H92.3961L96.0161 17.82H93.5761L97.4161 6H101.756L105.336 17.82H102.996L106.776 6H111.256L106.776 20H101.716L98.7961 10.32H100.156L97.0761 20H92.0161Z" fill="white"/>
<path d="M118.593 20V6H122.473L128.073 15.14H126.033L131.473 6H135.353L135.393 20H131.093L131.053 12.48H131.733L128.013 18.74H125.933L122.053 12.48H122.893V20H118.593Z" fill="white"/>
<path d="M141.995 11.2H148.235V14.6H141.995V11.2ZM142.315 16.44H149.315V20H137.675V6H149.055V9.56H142.315V16.44Z" fill="white"/>
<path d="M151.132 20V6H158.032C159.592 6 160.966 6.28667 162.152 6.86C163.339 7.42 164.266 8.22 164.932 9.26C165.599 10.3 165.932 11.54 165.932 12.98C165.932 14.4333 165.599 15.6867 164.932 16.74C164.266 17.78 163.339 18.5867 162.152 19.16C160.966 19.72 159.592 20 158.032 20H151.132ZM155.852 16.32H157.832C158.499 16.32 159.079 16.1933 159.572 15.94C160.079 15.6867 160.472 15.3133 160.752 14.82C161.032 14.3133 161.172 13.7 161.172 12.98C161.172 12.2733 161.032 11.6733 160.752 11.18C160.472 10.6867 160.079 10.3133 159.572 10.06C159.079 9.80667 158.499 9.68 157.832 9.68H155.852V16.32Z" fill="white"/>
<path d="M167.656 20V6H172.376V20H167.656Z" fill="white"/>
<path d="M173.128 20L179.248 6H183.888L190.008 20H185.128L180.608 8.24H182.448L177.928 20H173.128ZM176.768 17.56L177.968 14.16H184.408L185.608 17.56H176.768Z" fill="white"/>
<path d="M59 50.9085V38.0915H59.9335V50.0662H67.3101V50.9085H59Z" fill="white"/>
<path d="M81.5135 43.9873H88.4508V44.8113H81.5135V43.9873ZM81.6233 50.0662H89.5308V50.9085H80.6898V38.0915H89.2562V38.9338H81.6233V50.0662Z" fill="white"/>
<path d="M109.336 51C108.372 51 107.481 50.8413 106.664 50.5239C105.846 50.1944 105.132 49.7366 104.522 49.1507C103.924 48.5648 103.461 47.8812 103.131 47.1C102.802 46.3066 102.637 45.4399 102.637 44.5C102.637 43.5601 102.802 42.6995 103.131 41.9183C103.461 41.1249 103.93 40.4352 104.541 39.8493C105.151 39.2634 105.858 38.8117 106.664 38.4944C107.481 38.1648 108.378 38 109.355 38C110.282 38 111.142 38.1465 111.935 38.4394C112.729 38.7324 113.406 39.1718 113.967 39.7577L113.381 40.3803C112.82 39.831 112.204 39.4404 111.533 39.2085C110.874 38.9765 110.154 38.8606 109.373 38.8606C108.543 38.8606 107.774 39.0009 107.066 39.2817C106.359 39.5624 105.742 39.9592 105.218 40.4718C104.693 40.9845 104.284 41.5826 103.991 42.2662C103.711 42.9498 103.57 43.6944 103.57 44.5C103.57 45.3056 103.711 46.0502 103.991 46.7338C104.284 47.4174 104.693 48.0155 105.218 48.5282C105.742 49.0408 106.359 49.4376 107.066 49.7183C107.774 49.9991 108.543 50.1394 109.373 50.1394C110.129 50.1394 110.843 50.0235 111.514 49.7915C112.198 49.5596 112.82 49.1751 113.381 48.638L113.912 49.3521C113.339 49.9014 112.649 50.3164 111.844 50.5972C111.051 50.8657 110.215 51 109.336 51ZM113.015 49.2606V44.5549H113.912V49.3521L113.015 49.2606Z" fill="white"/>
<path d="M129.827 43.9873H136.764V44.8113H129.827V43.9873ZM129.937 50.0662H137.844V50.9085H129.003V38.0915H137.569V38.9338H129.937V50.0662Z" fill="white"/>
<path d="M152.23 50.9085V38.0915H153.017L162.151 49.7549H161.73V38.0915H162.663V50.9085H161.895L152.743 39.2451H153.164V50.9085H152.23Z" fill="white"/>
<path d="M178.121 50.9085V38.0915H183.191C184.545 38.0915 185.735 38.3662 186.76 38.9155C187.785 39.4648 188.578 40.2216 189.14 41.1859C189.713 42.1502 190 43.2549 190 44.5C190 45.7451 189.713 46.8498 189.14 47.8141C188.578 48.7784 187.785 49.5352 186.76 50.0845C185.735 50.6338 184.545 50.9085 183.191 50.9085H178.121ZM179.054 50.0662H183.118C184.326 50.0662 185.375 49.8282 186.266 49.3521C187.157 48.8761 187.846 48.223 188.334 47.393C188.822 46.5507 189.066 45.5864 189.066 44.5C189.066 43.4136 188.822 42.4554 188.334 41.6254C187.846 40.7831 187.157 40.1239 186.266 39.6479C185.375 39.1718 184.326 38.9338 183.118 38.9338H179.054V50.0662Z" fill="white"/>
<line x1="59" y1="28.5" x2="190" y2="28.5" stroke="white" stroke-dasharray="5 5"/>
</svg>
